<svg width="24" height="24" viewBox="0 0 24 24" fill="none" xmlns="http://www.w3.org/2000/svg">
  <path d="M20.84 4.61C20.3292 4.0994 19.7228 3.69374 19.0554 3.41709C18.3879 3.14045 17.6725 2.99817 16.95 2.99817C16.2275 2.99817 15.5121 3.14045 14.8446 3.41709C14.1772 3.69374 13.5708 4.0994 13.06 4.61L12 5.67L10.94 4.61C9.9083 3.5783 8.50903 2.9987 7.05 2.9987C5.59096 2.9987 4.1917 3.5783 3.16 4.61C2.1283 5.6417 1.5487 7.04097 1.5487 8.5C1.5487 9.95903 2.1283 11.3583 3.16 12.39L4.22 13.45L12 21.23L19.78 13.45L20.84 12.39C21.3506 11.8792 21.7563 11.2728 22.0329 10.6054C22.3096 9.93794 22.4518 9.22251 22.4518 8.5C22.4518 7.77749 22.3096 7.06206 22.0329 6.39462C21.7563 5.72718 21.3506 5.12075 20.84 4.61V4.61Z" fill="#1DB954"/>
</svg>