<svg width="24" height="24" viewBox="0 0 24 24" fill="none" xmlns="http://www.w3.org/2000/svg">
  <path d="M3 15L3 9L8 5L13 9L19 9C20.1046 9 21 9.89543 21 11L21 13C21 14.1046 20.1046 15 19 15L13 15L8 19L3 15Z" stroke="black" stroke-width="2" stroke-linejoin="round"/>
  <path d="M17 9C18.6569 9 20 10.3431 20 12C20 13.6569 18.6569 15 17 15" stroke="black" stroke-width="2" stroke-linecap="round"/>
  <path d="M15 7C17.2091 7 19 8.79086 19 11C19 13.2091 17.2091 15 15 15" stroke="black" stroke-width="2" stroke-linecap="round"/>
  <path d="M13 5C16.3137 5 19 7.68629 19 11C19 14.3137 16.3137 17 13 17" stroke="black" stroke-width="2" stroke-linecap="round"/>
</svg>